<svg height="512pt" viewBox="0 -40 512 512" width="512pt" xmlns="http://www.w3.org/2000/svg"><path d="m427.507812 424.414062h-363.75c-26.429687 0-56.257812-29.824218-56.257812-66.621093v-283.667969c0-36.796875 29.828125-66.625 66.621094-66.625h363.753906c36.796875 0 66.625 29.828125 66.625 66.625v283.667969c0 36.792969-29.828125 66.621093-76.992188 66.621093zm0 0" fill="#76e7e7"/><path d="m111.492188 357.792969v-283.667969c0-36.796875 29.828124-66.625 66.625-66.625h-103.996094c-36.792969 0-66.621094 29.828125-66.621094 66.625v283.667969c0 36.796875 29.828125 66.621093 56.257812 66.621093h103.992188c-26.429688 0-56.257812-29.828124-56.257812-66.621093zm0 0" fill="#2eddda"/><path d="m437.878906 7.5h-363.757812c-36.792969 0-66.621094 29.828125-66.621094 66.625v35.988281h497v-35.988281c0-36.796875-29.828125-66.625-66.621094-66.625zm0 0" fill="#a7b6c5"/><path d="m178.117188 7.5h-103.996094c-36.792969 0-66.621094 29.828125-66.621094 66.625v35.988281h103.992188v-35.988281c0-36.796875 29.828124-66.625 66.625-66.625zm0 0" fill="#889cb0"/><path d="m101.960938 61.964844c0 9.027344-7.320313 16.347656-16.347657 16.347656-9.03125 0-16.347656-7.320312-16.347656-16.347656 0-9.03125 7.316406-16.351563 16.347656-16.351563 9.027344 0 16.347657 7.320313 16.347657 16.351563zm0 0" fill="#ffbfc7"/><path d="m164.726562 61.964844c0 9.027344-7.320312 16.347656-16.347656 16.347656s-16.347656-7.320312-16.347656-16.347656c0-9.03125 7.320312-16.351563 16.347656-16.351563s16.347656 7.320313 16.347656 16.351563zm0 0" fill="#f9ee80"/><path d="m227.492188 61.964844c0 9.027344-7.320313 16.347656-16.347657 16.347656-9.027343 0-16.347656-7.320312-16.347656-16.347656 0-9.03125 7.320313-16.351563 16.347656-16.351563 9.027344 0 16.347657 7.320313 16.347657 16.351563zm0 0" fill="#b1ecd0"/><path d="m435.324219 370.941406c0-23.199218-18.808594-42.007812-42.007813-42.007812h-100.054687c-23.199219 0-42.007813 18.808594-42.007813 42.007812v53.472656h176.257813c2.664062 0 5.261719-.105468 7.8125-.292968zm0 0" fill="#00ce8e"/><path d="m355.277344 348.125h-23.976563c-43.6875 0-79.101562-35.414062-79.101562-79.097656v-40.875c0-50.304688 40.78125-91.085938 91.089843-91.085938 50.304688 0 91.085938 40.78125 91.085938 91.085938v40.875c0 43.683594-35.410156 79.097656-79.097656 79.097656zm0 0" fill="#ffcbbe"/><path d="m343.289062 137.066406c18.796876 0 36.257813 5.691406 50.765626 15.445313 0 0-8.449219 118.078125-141.855469 75.640625.003906-50.304688 40.785156-91.085938 91.089843-91.085938zm0 0" fill="#dd6642"/><path d="m343.289062 137.066406c-18.796874 0-36.261718 5.695313-50.769531 15.449219 0 0 8.453125 118.074219 141.859375 75.636719-.003906-50.304688-40.785156-91.085938-91.089844-91.085938zm0 0" fill="#e7896e"/><path d="m162.757812 159.328125 11.324219 22.949219 25.328125 3.683594c13.429688 1.949218 18.789063 18.453124 9.074219 27.925781l-18.328125 17.863281 4.328125 25.222656c2.292969 13.375-11.746094 23.574219-23.757813 17.261719l-22.652343-11.910156-22.652344 11.910156c-12.011719 6.3125-26.050781-3.886719-23.757813-17.261719l4.328126-25.222656-18.328126-17.863281c-9.71875-9.472657-4.355468-25.976563 9.074219-27.925781l25.328125-3.683594 11.324219-22.949219c6.007813-12.167969 23.359375-12.167969 29.367187 0zm0 0" fill="#f9ee80"/><path d="m204.46875 331.597656h-112.785156c-8.289063 0-15.007813-6.71875-15.007813-15.007812 0-8.285156 6.71875-15.003906 15.007813-15.003906h112.785156c8.285156 0 15.003906 6.71875 15.003906 15.003906 0 8.289062-6.71875 15.007812-15.003906 15.007812zm0 0" fill="#889cb0"/><path d="m204.46875 384.328125h-112.785156c-8.289063 0-15.007813-6.71875-15.007813-15.007813 0-8.285156 6.71875-15.003906 15.007813-15.003906h112.785156c8.285156 0 15.003906 6.71875 15.003906 15.003906 0 8.289063-6.71875 15.007813-15.003906 15.007813zm0 0" fill="#889cb0"/><path d="m390.695312 285.046875c4.144532 0 7.5-3.359375 7.5-7.5v-12.449219c0-4.144531-3.355468-7.5-7.5-7.5-4.140624 0-7.5 3.355469-7.5 7.5v12.449219c0 4.140625 3.359376 7.5 7.5 7.5zm0 0"/><path d="m295.882812 285.046875c4.140626 0 7.5-3.359375 7.5-7.5v-12.449219c0-4.144531-3.359374-7.5-7.5-7.5-4.144531 0-7.5 3.355469-7.5 7.5v12.449219c0 4.140625 3.355469 7.5 7.5 7.5zm0 0"/><path d="m343.289062 287.820312c7.140626 0 13.738282-3.5625 17.660157-9.53125 2.273437-3.460937 1.3125-8.109374-2.152344-10.386718-1.269531-.832032-6.882813-2.992188-10.386719 2.152344-1.679687 2.46875-4.125 2.765624-5.121094 2.765624-.992187 0-3.484374-.269531-5.121093-2.765624-2.277344-3.460938-6.925781-4.425782-10.386719-2.152344-3.460938 2.277344-4.425781 6.925781-2.152344 10.386718 3.921875 5.96875 10.519532 9.53125 17.660156 9.53125zm0 0"/><path d="m437.878906 0h-363.757812c-40.867188 0-74.121094 33.253906-74.121094 74.125v79.21875c0 4.140625 3.355469 7.5 7.5 7.5s7.5-3.359375 7.5-7.5v-35.730469h482v240.179688c0 16.113281-6.511719 30.867187-18.335938 41.542969-9.46875 8.550781-21.683593 14.097656-35.839843 16.382812v-44.777344c0-8.265625-2.082031-16.453125-6.015625-23.667968-1.984375-3.636719-6.539063-4.976563-10.175782-2.996094-3.636718 1.984375-4.976562 6.539062-2.996093 10.175781 2.738281 5.019531 4.1875 10.722656 4.1875 16.488281v45.96875c-.105469 0-.210938.003906-.316407.003906h-168.753906v-45.972656c0-14.089844 8.695313-26.757812 21.535156-31.980468 14.320313 10.472656 31.953126 16.664062 51.011719 16.664062h23.976563c47.75 0 86.601562-38.847656 86.601562-86.597656v-40.875c0-54.359375-44.226562-98.585938-98.589844-98.585938-54.359374 0-98.585937 44.226563-98.585937 98.585938v40.875c0 22.890625 8.933594 43.734375 23.488281 59.234375-14.816406 8.753906-24.4375 24.9375-24.4375 42.679687v45.976563h-179.996094c-22.085937-.003907-48.757812-26.375-48.757812-59.125v-173.367188c0-4.144531-3.355469-7.5-7.5-7.5s-7.5 3.355469-7.5 7.5v173.367188c0 19.058593 7.148438 37.5625 20.121094 52.101562 12.488281 13.996094 28.394531 22.019531 43.636718 22.019531h363.75c56.402344 0 84.492188-33.730468 84.492188-74.121093v-283.667969c0-40.871094-33.253906-74.125-74.121094-74.125zm-11.203125 222.65625c-38.316406 11.195312-68.890625 9.347656-90.921875-5.53125-26.0625-17.597656-33.347656-49.222656-35.1875-60.777344 12.511719-7.472656 27.121094-11.78125 42.722656-11.78125 44.242188 0 80.542969 34.554688 83.386719 78.089844zm-139.515625-56.386719c3.609375 16.210938 13.152344 43.667969 37.796875 61.597657-18.230469 3.839843-40.019531 2.101562-65.054687-5.210938 1.457031-22.296875 11.671875-42.238281 27.257812-56.386719zm-27.460937 71.914063c43.683593 15.855468 72.101562 4.363281 83.574219-.214844 11.464843 4.59375 42.46875 16.714844 83.605468.21875v30.839844c0 39.480468-32.121094 71.597656-71.601562 71.597656h-23.976563c-39.480469 0-71.601562-32.117188-71.601562-71.597656zm-244.699219-135.570313v-28.492187c0-32.597656 26.523438-59.121094 59.121094-59.121094h363.757812c32.597656 0 59.121094 26.523438 59.121094 59.121094v28.492187zm0 0"/><path d="m85.613281 38.113281c-13.148437 0-23.847656 10.699219-23.847656 23.851563 0 13.148437 10.695313 23.847656 23.847656 23.847656 13.148438 0 23.847657-10.699219 23.847657-23.847656 0-13.152344-10.699219-23.851563-23.847657-23.851563zm0 32.699219c-4.878906 0-8.847656-3.96875-8.847656-8.847656s3.96875-8.851563 8.847656-8.851563c4.878907 0 8.847657 3.972657 8.847657 8.851563s-3.96875 8.847656-8.847657 8.847656zm0 0"/><path d="m148.378906 38.113281c-13.148437 0-23.847656 10.699219-23.847656 23.851563 0 13.148437 10.695312 23.847656 23.847656 23.847656 13.148438 0 23.847656-10.699219 23.847656-23.847656 0-13.152344-10.699218-23.851563-23.847656-23.851563zm0 32.699219c-4.878906 0-8.847656-3.96875-8.847656-8.847656s3.96875-8.851563 8.847656-8.851563 8.847656 3.972657 8.847656 8.851563-3.96875 8.847656-8.847656 8.847656zm0 0"/><path d="m211.144531 38.113281c-13.148437 0-23.847656 10.699219-23.847656 23.851563 0 13.148437 10.699219 23.847656 23.847656 23.847656 13.152344 0 23.847657-10.699219 23.847657-23.847656 0-13.152344-10.699219-23.851563-23.847657-23.851563zm0 32.699219c-4.878906 0-8.847656-3.96875-8.847656-8.847656s3.96875-8.851563 8.847656-8.851563c4.878907 0 8.847657 3.972657 8.847657 8.851563s-3.96875 8.847656-8.847657 8.847656zm0 0"/><path d="m219.761719 194.785156c-2.832031-8.707031-10.214844-14.933594-19.273438-16.25l-21.425781-3.109375-9.578125-19.414062c-4.050781-8.207031-12.253906-13.308594-21.410156-13.308594-9.152344 0-17.355469 5.097656-21.40625 13.308594l-9.582031 19.414062-21.421876 3.109375c-9.0625 1.316406-16.445312 7.542969-19.273437 16.25-2.828125 8.707032-.511719 18.082032 6.042969 24.472656l15.5 15.109376-3.65625 21.335937c-1.550782 9.023437 2.089844 17.972656 9.496094 23.351563 4.183593 3.039062 14.183593 7.632812 25.140624 1.816406l19.160157-10.074219 19.164062 10.074219c8.101563 4.257812 17.734375 3.5625 25.140625-1.816406 7.40625-5.378907 11.046875-14.328126 9.5-23.347657l-3.660156-21.339843 15.503906-15.109376c6.550782-6.390624 8.867188-15.769531 6.039063-24.472656zm-16.515625 13.730469-18.324219 17.863281c-1.769531 1.722656-2.574219 4.207032-2.15625 6.640625l4.328125 25.222657c.582031 3.402343-.738281 6.648437-3.53125 8.679687-2.792969 2.027344-6.285156 2.28125-9.34375.671875l-22.652344-11.90625c-2.1875-1.148438-4.796875-1.148438-6.980468 0l-22.652344 11.90625c-3.058594 1.609375-6.550782 1.355469-9.34375-.671875-2.792969-2.03125-4.113282-5.277344-3.53125-8.679687l4.328125-25.222657c.417969-2.433593-.390625-4.917969-2.15625-6.640625l-18.328125-17.863281c-2.472656-2.410156-3.3125-5.8125-2.246094-9.09375 1.066406-3.285156 3.746094-5.542969 7.164062-6.039063l25.324219-3.683593c2.445313-.351563 4.554688-1.886719 5.648438-4.101563l11.328125-22.949218c1.527344-3.097657 4.5-4.945313 7.957031-4.945313 3.453125 0 6.425781 1.847656 7.953125 4.945313l11.328125 22.949218c1.09375 2.214844 3.203125 3.746094 5.648437 4.101563l25.324219 3.683593c3.417969.496094 6.097657 2.753907 7.164063 6.039063 1.066406 3.28125.226562 6.683594-2.25 9.09375zm0 0"/><path d="m91.683594 339.097656c4.140625 0 7.5-3.359375 7.5-7.5 0-4.144531-3.359375-7.5-7.5-7.5s-7.507813-3.367187-7.507813-7.503906c0-4.140625 3.367188-7.507812 7.507813-7.507812h112.785156c4.136719 0 7.503906 3.367187 7.503906 7.507812 0 4.136719-3.367187 7.503906-7.503906 7.503906h-82.445312c-4.144532 0-7.5 3.355469-7.5 7.5 0 4.140625 3.355468 7.5 7.5 7.5h82.445312c12.410156 0 22.503906-10.097656 22.503906-22.503906 0-12.410156-10.09375-22.507812-22.503906-22.507812h-112.785156c-12.410156 0-22.507813 10.097656-22.507813 22.507812 0 12.40625 10.09375 22.503906 22.507813 22.503906zm0 0"/><path d="m91.683594 391.828125h112.785156c12.410156 0 22.503906-10.097656 22.503906-22.503906 0-12.410157-10.09375-22.507813-22.503906-22.507813h-112.785156c-12.410156 0-22.507813 10.097656-22.507813 22.507813 0 12.40625 10.09375 22.503906 22.507813 22.503906zm0-30.011719h112.785156c4.136719 0 7.503906 3.367188 7.503906 7.503906 0 4.140626-3.367187 7.507813-7.503906 7.507813h-112.785156c-4.140625 0-7.507813-3.367187-7.507813-7.507813 0-4.136718 3.367188-7.503906 7.507813-7.503906zm0 0"/></svg>