<svg height="512pt" viewBox="0 -57 512.00178 512" width="512pt" xmlns="http://www.w3.org/2000/svg"><path d="m422.597656 197.796875c-120.257812-1.921875-224.324218 84.8125-344.164062 85.1875-24.453125.078125-45.503906-17.234375-49.898438-41.289063l-20.519531-112.320312c-3.511719-19.234375 11.382813-36.996094 30.933594-36.6875 120.257812 1.921875 224.324219-84.808594 344.164062-85.1875 24.453125-.074219 45.503907 17.234375 49.898438 41.289062l20.519531 112.320313c3.511719 19.234375-11.382812 37-30.933594 36.6875zm0 0" fill="#9ad880"/><path d="m422.597656 197.796875c19.550782.3125 34.445313-17.453125 30.933594-36.683594l-11.953125-65.421875c-64.15625 17.308594-132.894531 43.527344-204.203125 56.921875-100.144531 18.804688-189.121094-7.523437-229.28125-22.816406l20.4375 111.898437c4.394531 24.054688 25.445312 41.367188 49.902344 41.289063 119.839844-.375 223.90625-87.109375 344.164062-85.1875zm0 0" fill="#8dc971"/><path d="m85.253906 105.574219c-1.007812-5.527344-2.769531-10.710938-5.144531-15.507813-13.535156 1.882813-27.242187 2.84375-41.164063 2.621094-19.546874-.3125-34.445312 17.449219-30.929687 36.683594l8.117187 44.433594c7.019532 1.378906 14.40625 1.507812 21.871094.144531 31.929688-5.832031 53.082032-36.445313 47.25-68.375zm0 0" fill="#8dc971"/><path d="m44.410156 209.027344c-7.464844 1.363281-14.328125 4.097656-20.40625 7.867187l4.527344 24.796875c4.394531 24.058594 25.445312 41.367188 49.898438 41.289063 11.351562-.035157 22.554687-.839844 33.648437-2.277344 1.890625-7.765625 2.234375-16.050781.707031-24.421875-5.832031-31.929688-36.445312-53.085938-68.375-47.253906zm0 0" fill="#7fb762"/><path d="m419.847656 86.070312c6.78125-1.238281 13.070313-3.605468 18.722656-6.851562l-5.558593-30.429688c-4.394531-24.058593-25.445313-41.367187-49.898438-41.292968-9.917969.03125-19.722656.660156-29.441406 1.773437-3.148437 9.199219-4.066406 19.304688-2.195313 29.550781 5.832032 31.925782 36.441407 53.082032 68.371094 47.25zm0 0" fill="#8dc971"/><path d="m453.53125 161.109375-7.339844-40.167969c-6.4375-1.039062-13.152344-1.027344-19.933594.210938-31.929687 5.832031-53.085937 36.445312-47.253906 68.371094.6875 3.769531 1.730469 7.371093 3.070313 10.8125 13.328125-1.824219 26.820312-2.761719 40.523437-2.542969 19.550782.3125 34.445313-17.449219 30.933594-36.683594zm0 0" fill="#7fb762"/><path d="m335.101562 112.816406c-12.015624-35.179687-64.269531-49.179687-116.714843-31.265625-52.445313 17.910157-85.21875 60.953125-73.203125 96.132813 12.015625 35.179687 64.269531 49.179687 116.714844 31.269531 52.445312-17.914063 85.21875-60.953125 73.203124-96.136719zm0 0" fill="#c8efb9"/><path d="m142.878906 158.484375c-.535156 6.523437.1875 12.980469 2.308594 19.195313 12.019531 35.179687 64.277344 49.175781 116.722656 31.261718 45.550782-15.558594 76.269532-50.078125 75.679688-81.9375-32.671875 9.882813-66.160156 19.210938-100.222656 25.605469-33.179688 6.234375-65.128907 7.507813-94.488282 5.875zm0 0" fill="#9ad880"/><path d="m467.480469 363.65625c-117.957031-23.5-235.914063 43.121094-353.871094 21.957031-24.066406-4.320312-41.667969-25.132812-41.667969-49.585937v-114.179688c0-19.550781 17.847656-34.347656 37.023438-30.527344 117.957031 23.5 235.914062-43.121093 353.871094-21.957031 24.070312 4.320313 41.667968 25.128907 41.667968 49.585938v114.175781c0 19.554688-17.847656 34.351562-37.023437 30.53125zm0 0" fill="#b2e59c"/><g fill="#9ad880"><path d="m152.203125 212.316406c0-5.621094-.804687-11.035156-2.277344-16.183594-13.652343-.578124-27.308593-2.097656-40.960937-4.816406-19.175782-3.820312-37.023438 10.976563-37.023438 30.527344v45.167969c6.660156 2.621093 13.902344 4.074219 21.492188 4.074219 32.457031 0 58.769531-26.3125 58.769531-58.769532zm0 0"/><path d="m93.433594 306.746094c-7.589844 0-14.832032 1.453125-21.492188 4.074218v25.203126c0 24.453124 17.601563 45.265624 41.667969 49.585937 11.171875 2.003906 22.339844 3.226563 33.511719 3.804687 3.253906-7.300781 5.082031-15.386718 5.082031-23.898437 0-32.457031-26.3125-58.769531-58.769531-58.769531zm0 0"/><path d="m484.855469 253.253906c6.890625 0 13.503906-1.195312 19.648437-3.375v-30.9375c0-24.453125-17.597656-45.261718-41.667968-49.582031-9.761719-1.75-19.519532-2.898437-29.28125-3.546875-4.75 8.480469-7.46875 18.257812-7.46875 28.671875 0 32.457031 26.308593 58.769531 58.769531 58.769531zm0 0"/><path d="m504.503906 333.121094v-40.828125c-6.144531-2.179688-12.757812-3.375-19.648437-3.375-32.460938 0-58.769531 26.3125-58.769531 58.769531 0 3.828125.375 7.558594 1.074218 11.183594 13.441406.601562 26.882813 2.105468 40.320313 4.78125 19.175781 3.820312 37.023437-10.976563 37.023437-30.53125zm0 0"/></g><path d="m387.785156 264.796875c-4.699218-36.878906-53.074218-61.097656-108.054687-54.09375-54.976563 7.007813-95.734375 42.582031-91.035157 79.460937 4.699219 36.882813 53.078126 61.097657 108.054688 54.09375 54.976562-7.003906 95.734375-42.582031 91.035156-79.460937zm0 0" fill="#e8ffde"/><path d="m38.003906 173.949219c15.972656-2.917969 29.242188-12.03125 37.792969-24.414063-28.582031-6.011718-51.917969-13.726562-67.703125-19.738281l8.039062 44.007813c7.019532 1.378906 14.40625 1.507812 21.871094.144531zm0 0" fill="#7fb762"/><path d="m359.277344 264.886719c-.382813-4.121094-4.039063-7.15625-8.164063-6.773438-4.125.382813-7.15625 4.035157-6.773437 8.160157l1.148437 12.398437c.382813 4.125 4.039063 7.160156 8.164063 6.777344 4.125-.382813 7.15625-4.039063 6.773437-8.164063zm0 0"/><path d="m236.191406 276.304688c-.382812-4.125-4.035156-7.160157-8.160156-6.773438-4.125.382812-7.160156 4.035156-6.777344 8.160156l1.152344 12.398438c.382812 4.121094 4.035156 7.15625 8.160156 6.773437 4.125-.382812 7.15625-4.035156 6.773438-8.160156zm0 0"/><path d="m305.96875 272.652344c-1.34375-.710938-7.128906-2.34375-10.144531 3.101562-1.445313 2.609375-3.855469 3.132813-4.84375 3.226563-.992188.089843-3.496094.050781-5.355469-2.28125-2.585938-3.238281-7.304688-3.765625-10.542969-1.183594-3.234375 2.585937-3.765625 7.304687-1.179687 10.542969 4.453125 5.578125 11.355468 8.515625 18.464844 7.855468 7.105468-.660156 13.351562-4.816406 16.703124-11.117187 1.941407-3.660156.554688-8.199219-3.101562-10.144531zm0 0"/><path d="m461.175781 161.480469c-.082031-.574219-20.785156-114.039063-20.785156-114.039063-5.027344-27.515625-29.027344-47.441406-57.113281-47.441406-.0625 0-.125 0-.1875 0-60.511719.191406-117.382813 22.007812-172.382813 43.109375-20.914062 8.019531-42.535156 16.316406-63.929687 23.238281-3.941406 1.273438-6.101563 5.503906-4.828125 9.445313 1.277343 3.941406 5.511719 6.101562 9.445312 4.824219 21.773438-7.042969 43.589844-15.410157 64.683594-23.503907 41.429687-15.894531 83.949219-32.195312 127.71875-38.914062-1.113281 7.261719-1.027344 14.695312.300781 21.964843 3.179688 17.414063 16.949219 52.179688 65.050782 54.378907 11.199218.511719 20-2.945313 23.796874-4.390625l4.117188 22.546875c-4.0625-.011719-8.125.335937-12.152344 1.070312-24.625 4.5-44.378906 22.308594-51.535156 45.992188-29.140625 2.875-58.078125 8.300781-86.535156 13.644531-41.609375 7.8125-84.230469 15.816406-126.515625 15.445312-3.636719-4.074218-22.074219-30.566406 3.265625-61.175781 13.613281-16.449219 33.257812-30.851562 57.230468-39.042969 23.972657-8.1875 48.53125-9.65625 69.15625-4.128906 19.554688 5.234375 33.0625 16.148438 38.042969 30.71875 2.847657 8.335938 2.78125 17.355469-.191406 26.804688-1.242187 3.949218.949219 8.160156 4.902344 9.40625 3.953125 1.242187 8.164062-.953125 9.40625-4.902344 3.898437-12.386719 3.925781-24.890625.078125-36.15625-6.648438-19.457031-23.820313-33.789062-48.359375-40.363281-23.464844-6.285157-51.125-4.714844-77.886719 4.425781-26.757812 9.140625-49.734375 24.71875-64.316406 44.148438-28.746094 38.3125-11.433594 66.945312-10.054688 69.515624-10.429687-.753906-20.730468-2.628906-31.167968-4.140624-28.332032-4.109376-38.367188 14.410156-40.648438 18.277343-19.800781-4.902343-35.882812 1.605469-40.210938 3.402344l-4.253906-23.289063c.710938.023438 7.4375.167969 14.03125-1.03125 35.953125-6.539062 59.851563-41.152343 53.285156-77.097656-.507812-2.777344-1.203124-5.519531-2.058593-8.207031 9.449219-1.601563 19.140625-3.660156 29.15625-6.199219 4.015625-1.019531 6.441406-5.101562 5.425781-9.113281-1.019531-4.019531-5.101562-6.445313-9.117188-5.425781-27.792968 7.050781-52.992187 10.285156-76.972656 9.90625-11.546875-.191406-22.417968 4.769531-29.886718 13.582031-7.519532 8.871094-10.632813 20.515625-8.542969 31.953125l20.515625 112.320312c4.160156 22.757813 21.175781 40.453126 43.289062 45.789063v47.195313c0 28.035156 20.121094 51.992187 47.84375 56.964843 16.972656 3.046875 33.964844 4.3125 50.933594 4.3125 42.582031-.003906 84.992188-7.964843 126.386719-15.738281 58.050781-10.902344 118.082031-22.175781 176.410156-10.554688 11.296875 2.25 22.90625-.660156 31.839844-7.988281 8.992187-7.375 14.144531-18.273437 14.144531-29.898437v-114.175782c.003906-50.046874-49.832031-57.300781-50.824219-57.464843zm35.828125 57.464843v25.34375c-3.96875.964844-8.035156 1.464844-12.148437 1.464844-28.273438 0-51.269531-22.996094-51.269531-51.269531 0-7.171875 1.535156-14.265625 4.429687-20.785156 7.855469.660156 15.691406 1.648437 23.496094 3.046875 20.5625 3.6875 35.492187 21.4375 35.492187 42.199218zm-78.503906-140.253906c-39.761719 3.476563-57.183594-27.75-59.644531-41.21875-1.289063-7.054687-1.050781-14.3125.621093-21.246094 7.847657-.765624 15.730469-1.199218 23.660157-1.222656h.140625c20.832031 0 38.636718 14.757813 42.359375 35.136719l4.550781 24.925781c-2.597656 1.683594-7.585938 3.269532-11.6875 3.625zm9.105469 49.839844c4.050781-.742188 8.140625-.980469 12.214843-.742188l5.765626 31.558594c-18.605469-1.988281-37.214844-2.070312-55.761719-.914062 6.742187-15.457032 20.753906-26.792969 37.78125-29.902344zm-339.503907 75.019531c4.242188-3.480469 11.667969-6.023437 19.398438-4.875 12.230469 1.8125 24.265625 3.886719 36.398438 4.625.53125 2.976563.804687 5.992188.804687 9.015625 0 28.269532-23 51.269532-51.269531 51.269532-4.761719 0-9.449219-.65625-13.992188-1.949219v-39.789063c0-7.113281 3.160156-13.78125 8.660156-18.296875zm-67.476562-95.082031c4.554688-5.371094 11.195312-8.394531 18.203125-8.277344 11.917969.191406 24.082031-.46875 36.644531-1.976562 1.054688 2.828125 1.863282 5.738281 2.40625 8.707031 5.078125 27.8125-13.414062 54.566406-41.222656 59.648437-4.683594.855469-9.414062 1.050782-14.113281.597657l-7.148438-39.140625c-1.277343-7 .628907-14.125 5.230469-19.558594zm15.285156 131.878906-3.5625-19.511718c4.234375-2.085938 16.890625-7.792969 32.472656-4.308594-.238281 1.75-.378906 56.71875-.378906 56.71875-14.640625-4.882813-25.675781-17.285156-28.53125-32.898438zm250.929688 126.476563c-56.566406 10.621093-115.050782 21.609375-171.90625 11.40625-20.5625-3.6875-35.488282-21.4375-35.488282-42.203125v-19.832032c4.539063-1.292968 9.226563-1.949218 13.988282-1.949218 26.03125 0 47.921875 19.464844 50.921875 45.277344.445312 3.820312 3.542969 7.117187 8.316406 6.582031 4.117187-.460938 7.0625-4.199219 6.582031-8.316407-3.878906-33.375-32.175781-58.542968-65.820312-58.542968-4.734375 0-9.410156.515625-13.988282 1.507812v-23.675781c4.578126.992187 9.253907 1.507813 13.988282 1.507813 36.539062 0 66.269531-29.730469 66.269531-66.269532 0-2.828125-.191406-5.648437-.550781-8.453125 43.953125.535157 87.726562-7.6875 130.457031-15.710937 43.609375-8.1875 88.363281-16.585938 132.625-15.328125-2.398437 6.941406-3.648437 14.273437-3.648437 21.660156 0 36.542969 29.726562 66.269531 66.269531 66.269531 4.097656 0 8.15625-.386718 12.148437-1.128906v22.921875c-3.992187-.742187-8.050781-1.132813-12.148437-1.132813-36.539063 0-66.308594 28.773438-66.171875 69.726563-44.421875-.726563-88.667969 7.574219-131.84375 15.683594zm201.503906-15.398438c-5.449219 4.46875-12.523438 6.246094-19.394531 4.875-11.726563-2.335937-23.457031-3.792969-35.1875-4.554687-.195313-34.648438 22.820312-55.332032 51.09375-55.332032 4.117187 0 8.183593.5 12.148437 1.46875v35.242188c0 7.117188-3.15625 13.785156-8.660156 18.300781zm0 0"/><path d="m355.953125 214.597656c-21.722656-10.875-49.136719-14.898437-77.183594-11.324218-28.050781 3.574218-53.578125 14.335937-71.882812 30.3125-19.136719 16.703124-28.246094 37.132812-25.648438 57.53125 2.597657 20.394531 16.539063 37.886718 39.253907 49.261718 16.554687 8.285156 48.863281 14.429688 77.183593 11.324219 28.109375-3.082031 53.578125-14.339844 71.882813-30.3125 19.136718-16.703125 28.246094-37.136719 25.648437-57.53125-2.597656-20.394531-16.535156-37.890625-39.253906-49.261719zm3.742187 95.488282c-16.085937 14.042968-38.785156 23.535156-63.914062 26.738281-25.128906 3.199219-49.484375-.300781-68.574219-9.859375-18.101562-9.0625-29.144531-22.46875-31.089843-37.746094-1.945313-15.277344 5.382812-31.019531 20.632812-44.332031 16.085938-14.039063 38.839844-23.140625 63.914062-26.734375 26.214844-3.757813 54.097657 2.609375 68.574219 9.859375 18.101563 9.0625 29.144531 22.464843 31.089844 37.742187s-5.382813 31.023438-20.632813 44.332032zm0 0"/></svg>