<svg height="512pt" viewBox="0 0 512 512" width="512pt" xmlns="http://www.w3.org/2000/svg"><path d="m456.6875 428.382812h-178.515625c-26.40625 0-47.8125-21.40625-47.8125-47.8125v-325.257812c0-26.40625 21.40625-47.8125 47.8125-47.8125h178.515625c26.40625 0 47.8125 21.40625 47.8125 47.8125v325.257812c0 26.40625-21.40625 47.8125-47.8125 47.8125zm0 0" fill="#6e7ca8"/><path d="m326.804688 7.5h-48.632813c-26.40625 0-47.8125 21.40625-47.8125 47.8125v325.257812c0 26.40625 21.40625 47.8125 47.8125 47.8125h106.984375c-68.355469-72.277343-84.664062-223.367187-58.351562-420.882812zm0 0" fill="#54669e"/><path d="m463.375 366.671875h-191.890625c-8.359375 0-15.136719-6.777344-15.136719-15.136719v-289.347656c0-8.359375 6.777344-15.136719 15.136719-15.136719h191.890625c8.363281 0 15.140625 6.777344 15.140625 15.136719v289.347656c0 8.359375-6.777344 15.136719-15.140625 15.136719zm0 0" fill="#6e7ca8"/><path d="m463.375 366.671875h-191.890625c-8.359375 0-15.136719-6.777344-15.136719-15.136719v-289.347656c0-8.359375 6.777344-15.136719 15.136719-15.136719h191.890625c8.363281 0 15.140625 6.777344 15.140625 15.136719v289.347656c0 8.359375-6.777344 15.136719-15.140625 15.136719zm0 0" fill="#a3defe"/><path d="m322.046875 47.050781h-50.5625c-8.363281 0-15.140625 6.777344-15.140625 15.136719v289.347656c0 8.363282 6.777344 15.140625 15.140625 15.140625h74.78125c-31.636719-75.007812-38.621094-185.296875-24.21875-319.625zm0 0" fill="#7acefa"/><path d="m329.027344 132.304688c0-9.875-10.050782-17.878907-22.453125-17.878907-12.398438 0-22.453125 8.003907-22.453125 17.878907s10.054687 17.882812 22.453125 17.882812c12.402343 0 22.453125-8.007812 22.453125-17.882812zm0 0" fill="#fff"/><path d="m450.738281 132.304688c0-9.875-10.050781-17.878907-22.453125-17.878907s-22.453125 8.003907-22.453125 17.878907 10.050781 17.882812 22.453125 17.882812 22.453125-8.007812 22.453125-17.882812zm0 0" fill="#fff"/><path d="m385.535156 118.566406c0-11.1875-8.105468-12.238281-18.105468-12.238281-9.996094 0-18.105469 1.050781-18.105469 12.238281s8.105469 20.257813 18.105469 20.257813 18.105468-9.070313 18.105468-20.257813zm0 0" fill="#4e5660"/><path d="m311.648438 405.589844h-19.40625c-4.140626 0-7.5-3.355469-7.5-7.5 0-4.144532 3.359374-7.5 7.5-7.5h19.40625c4.140624 0 7.5 3.355468 7.5 7.5 0 4.140625-3.359376 7.5-7.5 7.5zm0 0" fill="#fff"/><path d="m442.617188 405.589844h-19.402344c-4.144532 0-7.5-3.355469-7.5-7.5 0-4.144532 3.355468-7.5 7.5-7.5h19.402344c4.140624 0 7.5 3.355468 7.5 7.5 0 4.140625-3.359376 7.5-7.5 7.5zm0 0" fill="#fff"/><path d="m233.828125 504.5h-178.515625c-26.40625 0-47.8125-21.40625-47.8125-47.8125v-325.257812c0-26.40625 21.40625-47.8125 47.8125-47.8125h178.515625c26.40625 0 47.8125 21.40625 47.8125 47.8125v325.257812c0 26.40625-21.40625 47.8125-47.8125 47.8125zm0 0" fill="#6e7ca8"/><path d="m103.945312 83.617188h-48.632812c-26.40625 0-47.8125 21.40625-47.8125 47.8125v325.257812c0 26.40625 21.40625 47.8125 47.8125 47.8125h106.984375c-68.355469-72.277344-84.664063-223.363281-58.351563-420.882812zm0 0" fill="#54669e"/><path d="m240.515625 442.792969h-191.890625c-8.363281 0-15.140625-6.777344-15.140625-15.136719v-289.347656c0-8.363282 6.78125-15.140625 15.140625-15.140625h191.890625c8.359375 0 15.136719 6.777343 15.136719 15.140625v289.347656c0 8.359375-6.773438 15.136719-15.136719 15.136719zm0 0" fill="#6e7ca8"/><path d="m240.515625 442.792969h-191.890625c-8.363281 0-15.140625-6.777344-15.140625-15.136719v-289.347656c0-8.363282 6.78125-15.140625 15.140625-15.140625h191.890625c8.359375 0 15.136719 6.777343 15.136719 15.140625v289.347656c0 8.359375-6.773438 15.136719-15.136719 15.136719zm0 0" fill="#89d47f"/><path d="m99.1875 123.167969h-50.5625c-8.359375 0-15.140625 6.777343-15.140625 15.140625v289.347656c0 8.359375 6.78125 15.136719 15.140625 15.136719h74.78125c-31.640625-75.007813-38.621094-185.296875-24.21875-319.625zm0 0" fill="#5ec783"/><path d="m88.785156 481.710938h-19.402344c-4.140624 0-7.5-3.359376-7.5-7.5 0-4.144532 3.359376-7.5 7.5-7.5h19.402344c4.144532 0 7.5 3.355468 7.5 7.5 0 4.140624-3.355468 7.5-7.5 7.5zm0 0" fill="#fff"/><path d="m219.757812 481.710938h-19.40625c-4.140624 0-7.5-3.359376-7.5-7.5 0-4.144532 3.359376-7.5 7.5-7.5h19.40625c4.140626 0 7.5 3.355468 7.5 7.5 0 4.140624-3.359374 7.5-7.5 7.5zm0 0" fill="#fff"/><path d="m365.429688 293.777344 31.882812-39.390625c5.96875-7.375 5.96875-17.917969 0-25.292969l-31.882812-39.390625c-4.777344-5.90625-14.328126-2.527344-14.328126 5.070313v20.09375h-237.929687v53.746093h237.929687v20.089844c0 7.601563 9.550782 10.980469 14.328126 5.074219zm0 0" fill="#fff"/><path d="m218.3125 241.738281c0 40.730469-33.015625 73.746094-73.742188 73.746094-40.726562 0-73.742187-33.015625-73.742187-73.746094 0-40.726562 33.015625-73.742187 73.742187-73.742187 40.726563 0 73.742188 33.015625 73.742188 73.742187zm0 0" fill="#eea849"/><path d="m181.589844 305.527344c-62.53125-12.722656-91.953125-72.648438-81.332032-122.734375-17.871093 13.457031-29.429687 34.851562-29.429687 58.945312 0 40.730469 33.015625 73.746094 73.742187 73.746094 13.492188 0 26.140626-3.628906 37.019532-9.957031zm0 0" fill="#e9901b"/><g fill="#f7ef87"><path d="m155.660156 249.238281h-37.5625c-4.144531 0-7.5-3.355469-7.5-7.5 0-4.140625 3.355469-7.5 7.5-7.5h37.5625c5.328125 0 9.660156-4.332031 9.660156-9.660156s-4.332031-9.660156-9.660156-9.660156h-37.5625c-4.144531 0-7.5-3.359375-7.5-7.5 0-4.144531 3.355469-7.5 7.5-7.5h37.5625c13.597656 0 24.660156 11.0625 24.660156 24.660156s-11.0625 24.660156-24.660156 24.660156zm0 0"/><path d="m155.660156 283.5625h-37.5625c-4.144531 0-7.5-3.355469-7.5-7.5 0-4.140625 3.355469-7.5 7.5-7.5h37.5625c5.328125 0 9.660156-4.332031 9.660156-9.660156s-4.332031-9.660156-9.660156-9.660156c-4.144531 0-7.5-3.359376-7.5-7.5 0-4.144532 3.355469-7.5 7.5-7.5 13.597656 0 24.660156 11.0625 24.660156 24.660156s-11.0625 24.660156-24.660156 24.660156zm0 0"/><path d="m131.203125 294.730469c-4.140625 0-7.5-3.359375-7.5-7.5v-90.980469c0-4.140625 3.359375-7.5 7.5-7.5 4.144531 0 7.5 3.359375 7.5 7.5v90.980469c0 4.140625-3.355469 7.5-7.5 7.5zm0 0"/><path d="m151.316406 214.917969c-4.140625 0-7.5-3.359375-7.5-7.5v-10.707031c0-4.144532 3.359375-7.5 7.5-7.5 4.144532 0 7.5 3.355468 7.5 7.5v10.707031c0 4.140625-3.355468 7.5-7.5 7.5zm0 0"/><path d="m151.316406 294.269531c-4.140625 0-7.5-3.355469-7.5-7.5v-10.707031c0-4.140625 3.359375-7.5 7.5-7.5 4.144532 0 7.5 3.359375 7.5 7.5v10.707031c0 4.144531-3.355468 7.5-7.5 7.5zm0 0"/></g><path d="m107.269531 385.246094c0-9.589844-9.761719-17.367188-21.808593-17.367188-12.046876 0-21.8125 7.777344-21.8125 17.367188 0 9.59375 9.765624 17.371094 21.8125 17.371094 12.046874 0 21.808593-7.777344 21.808593-17.371094zm0 0" fill="#fff"/><path d="m225.492188 385.246094c0-9.589844-9.765626-17.367188-21.8125-17.367188-12.042969 0-21.808594 7.777344-21.808594 17.367188 0 9.59375 9.765625 17.371094 21.808594 17.371094 12.046874 0 21.8125-7.777344 21.8125-17.371094zm0 0" fill="#fff"/><path d="m98.171875 352.71875c-4.144531 0-7.5 3.355469-7.5 7.5v7.703125c0 4.140625 3.355469 7.5 7.5 7.5 4.140625 0 7.5-3.359375 7.5-7.5v-7.703125c0-4.144531-3.359375-7.5-7.5-7.5zm63.558594 9.890625c-3.121094-2.722656-7.859375-2.398437-10.582031.726563-1.660157 1.90625-4.058594 3-6.578126 3-2.519531 0-4.917968-1.09375-6.578124-3-2.722657-3.121094-7.460938-3.449219-10.582032-.726563-3.125 2.71875-3.449218 7.457031-.726562 10.578125 4.511718 5.179688 11.03125 8.148438 17.886718 8.148438 6.855469 0 13.375-2.96875 17.886719-8.148438 2.722657-3.121094 2.398438-7.859375-.726562-10.578125zm29.238281-9.890625c-4.140625 0-7.5 3.355469-7.5 7.5v7.703125c0 4.140625 3.359375 7.5 7.5 7.5 4.144531 0 7.5-3.359375 7.5-7.5v-7.703125c0-4.144531-3.355469-7.5-7.5-7.5zm265.71875-352.71875h-178.515625c-30.5 0-55.3125 24.8125-55.3125 55.3125v20.808594h-148.414063c-4.140624 0-7.5 3.355468-7.5 7.5 0 4.140625 3.359376 7.5 7.5 7.5h159.382813c22.230469 0 40.3125 18.082031 40.3125 40.3125v75.933594h-10.984375v-69.058594c0-12.484375-10.15625-22.636719-22.640625-22.636719h-191.890625c-12.484375 0-22.640625 10.152344-22.640625 22.636719v289.347656c0 12.484375 10.15625 22.640625 22.640625 22.640625h191.890625c12.484375 0 22.636719-10.15625 22.636719-22.640625v-151.542969h10.988281v180.574219c0 22.226562-18.082031 40.3125-40.3125 40.3125h-178.515625c-22.226562 0-40.3125-18.085938-40.3125-40.3125v-325.257812c0-17.011719 10.761719-32.277344 26.777344-37.984376 3.902344-1.390624 5.9375-5.679687 4.546875-9.582031-1.390625-3.902343-5.679688-5.9375-9.582031-4.546875-21.976563 7.832032-36.742188 28.773438-36.742188 52.113282v325.257812c0 30.5 24.8125 55.3125 55.3125 55.3125h178.515625c30.5 0 55.3125-24.8125 55.3125-55.3125v-20.804688h155.277344c4.144531 0 7.5-3.359374 7.5-7.5 0-4.144531-3.355469-7.5-7.5-7.5h-155.277344v-46.710937h174.234375c12.484375 0 22.640625-10.152344 22.640625-22.636719v-289.347656c0-12.480469-10.15625-22.636719-22.640625-22.636719h-191.890625c-12.484375 0-22.636719 10.152344-22.636719 22.636719v16.023438c-3.535156-1-7.207031-1.652344-10.988281-1.929688v-20.96875c0-22.226562 18.085937-40.3125 40.3125-40.3125h178.515625c22.230469 0 40.3125 18.085938 40.3125 40.3125v325.257812c0 15.183594-8.394531 28.929688-21.910156 35.878907-3.6875 1.894531-5.136719 6.414062-3.242188 10.097656 1.328125 2.589844 3.953125 4.074219 6.675782 4.074219 1.15625 0 2.328124-.269532 3.421874-.832032 18.539063-9.53125 30.054688-28.390624 30.054688-49.21875v-325.257812c0-30.5-24.8125-55.3125-55.3125-55.3125zm-208.535156 427.652344c0 4.214844-3.425782 7.640625-7.636719 7.640625h-191.890625c-4.214844 0-7.640625-3.425781-7.640625-7.640625v-289.34375c0-4.214844 3.425781-7.640625 7.640625-7.640625h191.890625c4.210937 0 7.636719 3.425781 7.636719 7.640625v69.058594h-29.992188c-12.972656-27.660157-41.074218-46.871094-73.589844-46.871094-44.796874 0-81.242187 36.445312-81.242187 81.246094 0 44.796874 36.445313 81.242187 81.242187 81.242187 32.515626 0 60.617188-19.210937 73.589844-46.871094h29.992188zm-37.339844-185.914063c0 36.527344-29.714844 66.246094-66.242188 66.246094-36.527343 0-66.242187-29.71875-66.242187-66.246094 0-36.523437 29.714844-66.242187 66.242187-66.242187 36.527344 0 66.242188 29.71875 66.242188 66.242187zm12.648438 19.375c1.527343-6.210937 2.351562-12.699219 2.351562-19.375s-.824219-13.160156-2.351562-19.371093h127.640624c4.140626 0 7.5-3.355469 7.5-7.5v-20.09375c0-.210938 0-.394532.375-.527344.375-.132813.492188.011718.625.175781l31.882813 39.390625c3.71875 4.59375 3.71875 11.261719 0 15.855469l-31.882813 39.390625c-.132812.167968-.246093.308594-.625.175781-.375-.132813-.375-.316406-.375-.527344v-20.09375c0-4.140625-3.359374-7.5-7.5-7.5zm40.386718-198.925781c0-4.210938 3.425782-7.636719 7.636719-7.636719h191.890625c4.214844 0 7.640625 3.425781 7.640625 7.636719v289.347656c0 4.210938-3.425781 7.640625-7.640625 7.640625h-174.234375v-83.0625h54.460937v12.59375c0 6.679688 4.070313 12.4375 10.371094 14.667969 1.742188.617188 3.523438.917969 5.28125.917969 4.578125 0 8.96875-2.039063 12.007813-5.796875l31.878906-39.390625c8.144531-10.0625 8.144531-24.667969 0-34.730469l-31.878906-39.390625c-4.207031-5.195313-10.992188-7.105469-17.292969-4.878906-6.296875 2.230469-10.367188 7.988281-10.367188 14.671875v12.589844h-54.460937v-75.9375c0-19.4375-10.089844-36.550782-25.292969-46.417969zm160.683594 56.503906c4.140625 0 7.5-3.355468 7.5-7.5v-9.640625c0-4.140625-3.359375-7.5-7.5-7.5s-7.5 3.359375-7.5 7.5v9.640625c0 4.144532 3.359375 7.5 7.5 7.5zm-266.085938-7.453125c4.140626 0 7.5-3.355469 7.5-7.5s-3.359374-7.5-7.5-7.5h-27.75c-4.140624 0-7.5 3.355469-7.5 7.5s3.359376 7.5 7.5 7.5zm195.109376-91.121093c-4.140626 0-7.5 3.359374-7.5 7.5 0 4.144531 3.359374 7.5 7.5 7.5h27.75c4.140624 0 7.5-3.355469 7.5-7.5 0-4.140626-3.359376-7.5-7.5-7.5zm13.875 126.207031c14.117187 0 25.605468-12.453125 25.605468-27.757813 0-19.742187-18.601562-19.742187-25.605468-19.742187-7 0-25.605469 0-25.605469 19.742187 0 15.304688 11.488281 27.757813 25.605469 27.757813zm0-32.5c10.605468 0 10.605468 1.292969 10.605468 4.742187 0 7.035156-4.757812 12.757813-10.605468 12.757813-5.847657 0-10.605469-5.722657-10.605469-12.757813 0-3.449218 0-4.742187 10.605469-4.742187zm-57.101563 4.867187c4.144531 0 7.5-3.355468 7.5-7.5v-9.640625c0-4.140625-3.355469-7.5-7.5-7.5-4.140625 0-7.5 3.359375-7.5 7.5v9.640625c0 4.144532 3.359375 7.5 7.5 7.5zm0 0"/></svg>